<?xml version="1.0" encoding="utf-8"?>
<!-- Generator: Adobe Illustrator 16.0.3, SVG Export Plug-In . SVG Version: 6.00 Build 0)  -->
<!DOCTYPE svg PUBLIC "-//W3C//DTD SVG 1.1//EN" "http://www.w3.org/Graphics/SVG/1.1/DTD/svg11.dtd">
<svg version="1.1" id="Layer_1" xmlns="http://www.w3.org/2000/svg" xmlns:xlink="http://www.w3.org/1999/xlink" x="0px" y="0px"
	 width="216px" height="288px" viewBox="0 0 216 288" enable-background="new 0 0 216 288" xml:space="preserve">
<g>
	<rect x="0" fill="#FDC82F" width="216" height="288"/>
	<g>
		<g>
			<g>
				<g>
					<path d="M34.787,259.224c-0.125,0.318-0.358,0.883-0.84,1.461c-0.689,0.799-1.779,1.5-3.363,1.5
						c-2.578,0-4.551-1.888-4.551-5.141c0-3.311,2.139-5.084,4.619-5.084c3.032,0,3.749,2.329,3.97,3.004l-1.818,0.479
						c-0.028-0.18-0.112-0.59-0.359-0.963c-0.207-0.305-0.745-0.855-1.751-0.855c-1.584,0-2.688,1.312-2.688,3.394
						c0,2.22,1.171,3.447,2.701,3.447c0.91,0,1.461-0.443,1.862-0.955c0.316-0.425,0.439-0.784,0.509-1.006L34.787,259.224z
						 M50.943,262.185c-1.228,0-2.356-0.344-3.35-1.485c-0.965-1.117-1.296-2.387-1.296-3.613c0-2.977,2.013-5.125,4.673-5.125
						c2.412,0,4.673,1.789,4.66,5.109C55.616,259.856,53.935,262.185,50.943,262.185z M50.957,253.625
						c-1.669,0-2.784,1.352-2.784,3.38c0,2.188,1.212,3.5,2.826,3.5c1.212,0,2.771-0.881,2.812-3.226
						C53.853,255.378,52.873,253.625,50.957,253.625z M76.997,252.208v9.731H75.22l0.166-7.996l-2.098,7.996h-1.64l-2.109-7.996
						l0.181,7.996H67.94v-9.731h2.646l1.903,7.221l1.86-7.221H76.997z M98.818,252.208v9.731h-1.779l0.166-7.996l-2.095,7.996H93.47
						l-2.109-7.996l0.179,7.996h-1.775v-9.731h2.646l1.901,7.221l1.863-7.221H98.818z M113.431,252.208v9.731h-1.792v-9.731H113.431
						z M132.646,253.863h-2.688v8.077h-1.818v-8.077h-2.634v-1.654h7.14V253.863z M151.024,253.863h-2.688v8.077h-1.819v-8.077
						h-2.633v-1.654h7.142L151.024,253.863L151.024,253.863z M164.807,253.833v2.289h4.688v1.571h-4.688v2.604h5.475v1.644h-7.265
						v-9.731h6.919v1.625L164.807,253.833L164.807,253.833z M184.053,253.833v2.289h4.688v1.571h-4.688v2.604h5.473v1.644h-7.266
						v-9.731h6.92v1.625L184.053,253.833L184.053,253.833z"/>
					<path d="M26.476,26.475h163.05v62.861h-54.959l54.959,54.961v45.227h-45.229l-54.961-54.959v54.959H26.475L26.476,26.475
						L26.476,26.475z"/>
					<path d="M28.268,202.761v9.733h-1.792v-9.733H28.268z M41.656,202.761h1.792v9.733h-1.584l-4.262-6.827l0.11,6.827h-1.778
						v-9.733h1.64l4.303,6.878L41.656,202.761z M56.853,204.416h-2.69v8.078h-1.819v-8.078h-2.634v-1.655h7.144V204.416z
						 M64.836,204.386v2.289h4.688v1.569h-4.688v2.606h5.473v1.644H63.04v-9.733h6.925v1.625H64.836z M77.105,202.761h3.104
						c1.297,0.013,2.163,0.013,3.019,0.7c0.608,0.498,1.076,1.269,1.076,2.4c0,1.862-1.364,2.512-1.916,2.678l2.165,3.955h-2.082
						l-1.932-3.611h-1.627v3.611h-1.806L77.105,202.761L77.105,202.761z M78.911,204.33v3.047h0.636
						c0.621,0,0.854-0.016,1.198-0.025c0.4-0.014,1.709-0.083,1.709-1.505c0-0.204-0.013-0.925-0.771-1.308
						c-0.384-0.193-0.855-0.209-1.931-0.209H78.911z M97.153,202.761h1.792v9.733h-1.586l-4.26-6.827l0.111,6.827h-1.779v-9.733
						h1.641l4.303,6.878L97.153,202.761z M111.148,210.589h-3.652l-0.563,1.905h-1.945l3.28-9.733h2.068l3.321,9.733h-1.943
						L111.148,210.589z M110.666,209.008l-1.337-4.484l-1.351,4.484H110.666z M124.956,204.416h-2.688v8.078h-1.821v-8.078h-2.632
						v-1.655h7.143L124.956,204.416L124.956,204.416z M132.965,202.761v9.733h-1.791v-9.733H132.965z M144.23,212.742
						c-1.229,0-2.357-0.35-3.352-1.489c-0.964-1.118-1.295-2.386-1.295-3.612c0-2.98,2.014-5.13,4.674-5.13
						c2.41,0,4.672,1.794,4.66,5.116C148.904,210.408,147.221,212.742,144.23,212.742z M144.244,204.18
						c-1.67,0-2.783,1.354-2.783,3.381c0,2.188,1.214,3.5,2.824,3.5c1.213,0,2.771-0.883,2.812-3.227
						C147.141,205.932,146.159,204.18,144.244,204.18z M161.231,202.761h1.794v9.733h-1.587l-4.262-6.827l0.11,6.827h-1.781v-9.733
						h1.645l4.301,6.878L161.231,202.761z M175.225,210.589h-3.652l-0.563,1.905h-1.945l3.282-9.733h2.065l3.325,9.733h-1.943
						L175.225,210.589z M174.744,209.008l-1.338-4.484l-1.352,4.484H174.744z M185.665,210.839h3.86v1.655h-5.695v-9.75h1.835
						V210.839L185.665,210.839z"/>
					<path d="M26.476,219.113h13.198c2.51,0,4.91,0.148,6.522,0.826c3.522,1.494,4.575,5.1,4.575,7.648
						c0,0.979-0.114,3.344-2.023,5.29c-1.052,1.127-2.177,1.538-3.414,2.024l6.449,10.687h-9.298l-5.135-9.334h-2.477v9.334h-8.397
						L26.476,219.113L26.476,219.113z M34.873,224.662v6.153h3.487c1.388,0,4.05-0.071,4.05-3.04c0-3.039-2.625-3.113-4.085-3.113
						H34.873z M55.272,219.113H76.23v5.818H63.653v3.914h11.751v5.745H63.653v5.255h13.704v5.743H55.272V219.113z M86.481,236.429
						c0.75,1.162,1.388,2.139,3.679,2.889c1.087,0.378,2.44,0.604,3.717,0.604c0.676,0,3.979-0.075,3.979-1.988
						c0-0.191,0-1.165-1.465-1.654c-0.938-0.339-5.818-1.202-6.907-1.467c-2.438-0.635-7.206-2.138-7.206-7.699
						c0-1.168,0.262-2.367,0.748-3.418c1.729-3.905,6.195-5.441,10.963-5.441c3.041,0,5.791,0.596,7.966,1.688
						c1.991,0.978,2.968,2.024,3.906,3.002l-5.255,4.395c-0.414-0.526-0.865-1.125-1.999-1.727
						c-1.538-0.754-3.567-0.975-4.918-0.975c-1.427,0-3.003,0.375-3.003,1.725c0,1.275,1.352,1.586,3.643,1.996
						c5.864,1.016,11.721,2.065,11.721,8.637c0,2.775-1.164,4.729-2.366,5.972c-3.341,3.414-8.642,3.414-10.105,3.414
						c-1.988,0-4.093-0.188-6.159-0.788c-4.203-1.201-6.156-3.562-7.357-5.032L86.481,236.429z M135.445,238.757
						c-0.673,1.276-1.312,2.479-2.588,3.756c-2.706,2.664-6.498,3.903-10.287,3.903c-9.463,0-13.744-7.137-13.744-13.93
						c0-7.103,4.771-14.352,13.744-14.352c4.016,0,7.848,1.429,10.623,4.28c1.129,1.165,1.653,2.063,2.217,3.114l-7.021,3.463
						c-0.676-1.545-1.953-4.358-5.482-4.358c-1.84,0-3.004,0.86-3.567,1.423c-1.986,1.887-1.986,4.887-1.986,5.941
						c0,3.939,1.463,7.656,5.593,7.656c3.903,0,5.067-3.453,5.37-4.354L135.445,238.757z M138.752,219.113h8.379v16.526
						c0,1.128,0.037,2.293,0.975,3.188c0.676,0.719,1.691,0.979,2.667,0.979c1.315,0,2.18-0.489,2.667-0.939
						c0.975-0.935,1.012-2.1,1.012-3.228v-16.526h8.446v14.086c0,3.043,0,6.983-3.113,9.951c-1.916,1.803-4.994,3.149-9.086,3.149
						c-3.905,0-7.286-1.274-9.234-3.149c-2.601-2.555-2.64-5.521-2.712-8.3V219.113L138.752,219.113z M167.44,219.113h20.958v5.818
						h-12.547v3.914h11.723v5.745h-11.723v5.255h13.674v5.743H167.44V219.113z"/>
				</g>
			</g>
		</g>
	</g>
</g>
</svg>
