<?xml version="1.0" encoding="UTF-8" standalone="no"?>
<!-- Created with Inkscape (http://www.inkscape.org/) -->

<svg
   xmlns:svg="http://www.w3.org/2000/svg"
   xmlns="http://www.w3.org/2000/svg"
   version="1.1"
   width="85"
   height="90"
   id="svg3288">
  <defs
     id="defs3290" />
  <g
     transform="translate(-306.71519,-624.48091)"
     id="layer1">
    <path
       d="m 386.64279,650.65466 c 3.6925,-3.7975 5.3325,-5.555 5.075,-6.595 -0.195,-0.78 -0.945,-1.505 -2.11,-2.0425 -1.2525,-0.5775 -3,-0.9225 -3.9225,-0.4625 -0.31,0.1524 -0.8275,0.6575 -2.07,1.89 l -1.165,1.1425 -0.002,-0.002 c -0.64,-0.7475 -1.3225,-1.4975 -1.9975,-2.1725 -4.9075,-4.9075 -11.1025,-8.3125 -17.9225,-9.86 -2.5725,-3.1425 -6.1,-4.76 -9.705,-4.445 -3.0275,0.2625 -5.7825,1.87 -7.7825,4.525 -7.15,1.65 -13.7675,5.2325 -19.17,10.3775 l 0,-0.004 c -1.1,-0.4125 -3.5925,-0.145 -5.1925,0.5925 -0.92,0.425 -1.4625,0.955 -1.6175,1.5775 -0.12,0.4725 0.025,1.235 1.7925,3.555 l 0,0.006 c -5.47,7.52 -8.2475,16.6725 -7.805,25.7825 0.4575,9.34 4.2775,18.055 10.7625,24.54 2.3,2.2975 4.8625,4.2625 7.6525,5.865 l 0,0 c 4.0225,2.3125 8.525,4.0425 13.39,5.0375 10.2225,2.0875 20.34,0.5725 28.8325,-3.6325 l 0.025,-0.01 c 1.0825,-0.5025 1.545,-1.745 1.105,-2.955 l -0.1324,-0.365 c -1.7925,-4.8975 -7.2525,-19.8075 -2.7525,-32.76 1.885,-5.42 6.625,-11.005 10.6875,-15.3625 l 0.002,0 c 3.56,6.4675 5.0925,13.975 4.3,21.19 -0.7525,6.8375 -3.4475,13.0625 -7.8375,18.1425 l 0,0.002 c -0.1326,0.14 -0.2125,0.3275 -0.2125,0.535 0,0.0874 0.025,0.1724 0.04,0.25 l 0.345,0.98 c 0.1124,0.295 0.3975,0.505 0.7325,0.505 0.225,0 0.4275,-0.095 0.57,-0.2475 l 0.025,0.002 c 11.5175,-12.7075 14.045,-31.115 6.0875,-45.5775 l 0,-0.002 z m -48.96,27.995 c -1.185,4.9075 -2.805,11.615 -2.47,21.9425 l 0,-0.004 c -2.6375,-1.5725 -5.1,-3.475 -7.28,-5.655 -5.9475,-5.9475 -9.7075,-13.7425 -10.5875,-21.945 -0.845,-7.885 0.995,-15.7325 5.1825,-22.1775 0,0 0,0 0,-0.002 l 0.002,0 c 0,0 0,0 -0.002,0.002 1.3175,1.5775 2.9175,3.4025 4.5925,5.3075 4.1025,4.6625 8.7525,9.95 10.935,13.635 1.265,2.13 0.65,4.6775 -0.37,8.8975 z m 40.505,-30.1025 c -8.6675,7.595 -16.6175,11.4875 -23.6075,11.535 -5.38,0.0376 -10.94,-1.9475 -16.5225,-5.9 -4.615,-3.2675 -8.0925,-7.03 -10.17,-9.2775 l -0.2125,-0.2275 0,0 0,-0.002 0,0.002 c 4.2675,-3.9825 9.53,-6.7675 15.265,-8.0725 0,-0.002 0.002,-0.002 0.002,-0.004 l 0,0.002 c -0.002,0.002 0,0.002 0,0.002 -0.7475,2.16 -1.0175,4.5075 -0.81,6.8875 0.375,4.2725 2.295,8.1525 5.2675,10.6475 2.325,1.9525 5.145,2.8925 7.935,2.65 2.79,-0.245 5.4025,-1.66 7.355,-3.9875 2.495,-2.9725 3.7125,-7.1275 3.3375,-11.4 -0.0676,-0.785 -0.19,-1.565 -0.3625,-2.3275 l 0,0.002 c 3.9475,1.8225 7.54,4.3375 10.6625,7.46 0.6325,0.635 1.26,1.3075 1.865,2.01 l 0,0"
       id="path210"
       style="fill:#ed1b2d;fill-opacity:1;fill-rule:nonzero;stroke:none" />
  </g>
</svg>
